# This file uses centimeters as units for non-parametric coordinates.

mtllib wine.mtl
g default
v 0.629525 0.101794 -0.595316
v 0.535506 0.101794 -0.779839
v 0.389068 0.101794 -0.926277
v 0.204545 0.101794 -1.020296
v -0.000000 0.101794 -1.052693
v -0.204545 0.101794 -1.020296
v -0.389068 0.101794 -0.926277
v -0.535506 0.101794 -0.779839
v -0.629525 0.101794 -0.595316
v -0.661922 0.101794 -0.390771
v -0.629525 0.101794 -0.186226
v -0.535506 0.101794 -0.001703
v -0.389068 0.101794 0.144735
v -0.204545 0.101794 0.238754
v -0.000000 0.101794 0.271150
v 0.204545 0.101794 0.238754
v 0.389068 0.101794 0.144735
v 0.535506 0.101794 -0.001703
v 0.629525 0.101794 -0.186226
v 0.661922 0.101794 -0.390771
v 0.985397 0.505719 -0.710946
v 0.838229 0.505719 -0.999780
v 0.609009 0.505719 -1.229000
v 0.320175 0.505719 -1.376168
v 0.000000 0.505719 -1.426879
v -0.320175 0.505719 -1.376168
v -0.609009 0.505719 -1.229000
v -0.838229 0.505719 -0.999780
v -0.985397 0.505719 -0.710946
v -1.036107 0.505719 -0.390771
v -0.985397 0.505719 -0.070596
v -0.838229 0.505719 0.218238
v -0.609009 0.505719 0.447457
v -0.320175 0.505719 0.594626
v -0.000000 0.505719 0.645336
v 0.320175 0.505719 0.594625
v 0.609009 0.505719 0.447457
v 0.838228 0.505719 0.218237
v 0.985397 0.505719 -0.070596
v 1.036107 0.505719 -0.390771
v 1.212435 0.839052 -0.784715
v 1.031359 0.839052 -1.140097
v 0.749326 0.839052 -1.422130
v 0.393944 0.839052 -1.603206
v 0.000000 0.839052 -1.665601
v -0.393944 0.839052 -1.603206
v -0.749326 0.839052 -1.422130
v -1.031358 0.839052 -1.140097
v -1.212435 0.839052 -0.784715
v -1.274829 0.839052 -0.390771
v -1.212435 0.839052 0.003173
v -1.031358 0.839052 0.358555
v -0.749326 0.839052 0.640587
v -0.393944 0.839052 0.821663
v -0.000000 0.839052 0.884058
v 0.393944 0.839052 0.821663
v 0.749326 0.839052 0.640587
v 1.031358 0.839052 0.358555
v 1.212434 0.839052 0.003173
v 1.274829 0.839052 -0.390771
v 1.324760 1.172386 -0.821212
v 1.126909 1.172386 -1.209518
v 0.818747 1.172386 -1.517680
v 0.430441 1.172386 -1.715531
v 0.000000 1.172386 -1.783706
v -0.430441 1.172386 -1.715531
v -0.818747 1.172386 -1.517679
v -1.126908 1.172386 -1.209518
v -1.324760 1.172386 -0.821212
v -1.392935 1.172386 -0.390771
v -1.324760 1.172386 0.039669
v -1.126908 1.172386 0.427976
v -0.818747 1.172386 0.736137
v -0.430441 1.172386 0.933989
v 0.000000 1.172386 1.002164
v 0.430440 1.172386 0.933989
v 0.818746 1.172386 0.736137
v 1.126908 1.172386 0.427975
v 1.324760 1.172386 0.039669
v 1.392935 1.172386 -0.390771
v 1.419634 1.505719 -0.852038
v 1.207613 1.505719 -1.268153
v 0.877382 1.505719 -1.598384
v 0.461267 1.505719 -1.810405
v 0.000000 1.505719 -1.883463
v -0.461267 1.505719 -1.810405
v -0.877382 1.505719 -1.598384
v -1.207613 1.505719 -1.268153
v -1.419634 1.505719 -0.852038
v -1.492691 1.505719 -0.390771
v -1.419634 1.505719 0.070496
v -1.207612 1.505719 0.486611
v -0.877382 1.505719 0.816841
v -0.461267 1.505719 1.028862
v 0.000000 1.505719 1.101920
v 0.461267 1.505719 1.028862
v 0.877382 1.505719 0.816841
v 1.207612 1.505719 0.486611
v 1.419634 1.505719 0.070496
v 1.492691 1.505719 -0.390771
v 1.502422 1.839052 -0.878938
v 1.278037 1.839052 -1.319319
v 0.928548 1.839052 -1.668808
v 0.488167 1.839052 -1.893193
v 0.000000 1.839052 -1.970511
v -0.488166 1.839052 -1.893193
v -0.928548 1.839052 -1.668808
v -1.278036 1.839052 -1.319319
v -1.502422 1.839052 -0.878937
v -1.579740 1.839052 -0.390771
v -1.502422 1.839052 0.097395
v -1.278036 1.839052 0.537776
v -0.928548 1.839052 0.887265
v -0.488166 1.839052 1.111650
v 0.000000 1.839052 1.188968
v 0.488166 1.839052 1.111650
v 0.928548 1.839052 0.887265
v 1.278036 1.839052 0.537776
v 1.502421 1.839052 0.097395
v 1.579739 1.839052 -0.390771
v 1.480439 2.172386 -0.871795
v 1.259337 2.172386 -1.305733
v 0.914962 2.172386 -1.650108
v 0.481024 2.172386 -1.871210
v 0.000000 2.172386 -1.947397
v -0.481024 2.172386 -1.871210
v -0.914961 2.172386 -1.650108
v -1.259336 2.172386 -1.305733
v -1.480439 2.172386 -0.871795
v -1.556625 2.172386 -0.390771
v -1.480439 2.172386 0.090253
v -1.259336 2.172386 0.524190
v -0.914961 2.172386 0.868565
v -0.481024 2.172386 1.089667
v 0.000000 2.172386 1.165854
v 0.481024 2.172386 1.089667
v 0.914961 2.172386 0.868565
v 1.259336 2.172386 0.524190
v 1.480438 2.172386 0.090253
v 1.556625 2.172386 -0.390771
v 0.000000 0.172386 -0.390771
v 0.000000 2.172386 -0.390771
vt 0.648603 0.107966
vt 0.626409 0.064408
vt 0.591842 0.029841
vt 0.548284 0.007647
vt 0.500000 -0.000000
vt 0.451716 0.007647
vt 0.408159 0.029841
vt 0.373591 0.064409
vt 0.351397 0.107966
vt 0.343750 0.156250
vt 0.351397 0.204534
vt 0.373591 0.248091
vt 0.408159 0.282659
vt 0.451716 0.304853
vt 0.500000 0.312500
vt 0.548284 0.304853
vt 0.591841 0.282659
vt 0.626409 0.248091
vt 0.648603 0.204534
vt 0.656250 0.156250
vt 0.375000 0.312500
vt 0.387500 0.312500
vt 0.400000 0.312500
vt 0.412500 0.312500
vt 0.425000 0.312500
vt 0.437500 0.312500
vt 0.450000 0.312500
vt 0.462500 0.312500
vt 0.475000 0.312500
vt 0.487500 0.312500
vt 0.500000 0.312500
vt 0.512500 0.312500
vt 0.525000 0.312500
vt 0.537500 0.312500
vt 0.550000 0.312500
vt 0.562500 0.312500
vt 0.575000 0.312500
vt 0.587500 0.312500
vt 0.600000 0.312500
vt 0.612500 0.312500
vt 0.625000 0.312500
vt 0.375000 0.375157
vt 0.387500 0.375157
vt 0.400000 0.375157
vt 0.412500 0.375157
vt 0.425000 0.375157
vt 0.437500 0.375157
vt 0.450000 0.375157
vt 0.462500 0.375157
vt 0.475000 0.375157
vt 0.487500 0.375157
vt 0.500000 0.375157
vt 0.512500 0.375157
vt 0.525000 0.375157
vt 0.537500 0.375157
vt 0.550000 0.375157
vt 0.562500 0.375157
vt 0.575000 0.375157
vt 0.587500 0.375157
vt 0.600000 0.375157
vt 0.612500 0.375157
vt 0.625000 0.375157
vt 0.375000 0.437813
vt 0.387500 0.437813
vt 0.400000 0.437813
vt 0.412500 0.437813
vt 0.425000 0.437813
vt 0.437500 0.437813
vt 0.450000 0.437813
vt 0.462500 0.437813
vt 0.475000 0.437813
vt 0.487500 0.437813
vt 0.500000 0.437813
vt 0.512500 0.437813
vt 0.525000 0.437813
vt 0.537500 0.437813
vt 0.550000 0.437813
vt 0.562500 0.437813
vt 0.575000 0.437813
vt 0.587500 0.437813
vt 0.600000 0.437813
vt 0.612500 0.437813
vt 0.625000 0.437813
vt 0.375000 0.500470
vt 0.387500 0.500470
vt 0.400000 0.500470
vt 0.412500 0.500470
vt 0.425000 0.500470
vt 0.437500 0.500470
vt 0.450000 0.500470
vt 0.462500 0.500470
vt 0.475000 0.500470
vt 0.487500 0.500470
vt 0.500000 0.500470
vt 0.512500 0.500470
vt 0.525000 0.500470
vt 0.537500 0.500470
vt 0.550000 0.500470
vt 0.562500 0.500470
vt 0.575000 0.500470
vt 0.587500 0.500470
vt 0.600000 0.500470
vt 0.612500 0.500470
vt 0.625000 0.500470
vt 0.375000 0.563127
vt 0.387500 0.563127
vt 0.400000 0.563127
vt 0.412500 0.563127
vt 0.425000 0.563127
vt 0.437500 0.563127
vt 0.450000 0.563127
vt 0.462500 0.563127
vt 0.475000 0.563127
vt 0.487500 0.563127
vt 0.500000 0.563127
vt 0.512500 0.563127
vt 0.525000 0.563127
vt 0.537500 0.563127
vt 0.550000 0.563127
vt 0.562500 0.563127
vt 0.575000 0.563127
vt 0.587500 0.563127
vt 0.600000 0.563127
vt 0.612500 0.563127
vt 0.625000 0.563127
vt 0.375000 0.625783
vt 0.387500 0.625783
vt 0.400000 0.625783
vt 0.412500 0.625783
vt 0.425000 0.625783
vt 0.437500 0.625783
vt 0.450000 0.625783
vt 0.462500 0.625783
vt 0.475000 0.625783
vt 0.487500 0.625783
vt 0.500000 0.625783
vt 0.512500 0.625783
vt 0.525000 0.625783
vt 0.537500 0.625783
vt 0.550000 0.625783
vt 0.562500 0.625783
vt 0.575000 0.625783
vt 0.587500 0.625783
vt 0.600000 0.625783
vt 0.612500 0.625783
vt 0.625000 0.625783
vt 0.375000 0.688440
vt 0.387500 0.688440
vt 0.400000 0.688440
vt 0.412500 0.688440
vt 0.425000 0.688440
vt 0.437500 0.688440
vt 0.450000 0.688440
vt 0.462500 0.688440
vt 0.475000 0.688440
vt 0.487500 0.688440
vt 0.500000 0.688440
vt 0.512500 0.688440
vt 0.525000 0.688440
vt 0.537500 0.688440
vt 0.550000 0.688440
vt 0.562500 0.688440
vt 0.575000 0.688440
vt 0.587500 0.688440
vt 0.600000 0.688440
vt 0.612500 0.688440
vt 0.625000 0.688440
vt 0.648603 0.795466
vt 0.626409 0.751908
vt 0.591842 0.717341
vt 0.548284 0.695147
vt 0.500000 0.687500
vt 0.451716 0.695147
vt 0.408159 0.717341
vt 0.373591 0.751909
vt 0.351397 0.795466
vt 0.343750 0.843750
vt 0.351397 0.892034
vt 0.373591 0.935591
vt 0.408159 0.970159
vt 0.451716 0.992353
vt 0.500000 1.000000
vt 0.548284 0.992353
vt 0.591841 0.970159
vt 0.626409 0.935591
vt 0.648603 0.892034
vt 0.656250 0.843750
vt 0.500000 0.150000
vt 0.500000 0.837500
vn 0.697692 -0.679585 -0.226693
vn 0.593492 -0.679585 -0.431197
vn 0.629096 -0.628752 -0.457065
vn 0.739547 -0.628752 -0.240293
vn 0.431197 -0.679585 -0.593492
vn 0.457065 -0.628752 -0.629096
vn 0.226694 -0.679585 -0.697692
vn 0.240293 -0.628752 -0.739547
vn -0.000000 -0.679585 -0.733597
vn -0.000000 -0.628752 -0.777606
vn -0.226694 -0.679585 -0.697692
vn -0.240293 -0.628752 -0.739547
vn -0.431198 -0.679585 -0.593492
vn -0.457065 -0.628752 -0.629096
vn -0.593492 -0.679585 -0.431197
vn -0.629096 -0.628752 -0.457065
vn -0.697692 -0.679585 -0.226694
vn -0.739547 -0.628752 -0.240293
vn -0.733597 -0.679585 0.000000
vn -0.777606 -0.628752 -0.000000
vn -0.697692 -0.679585 0.226694
vn -0.739547 -0.628752 0.240293
vn -0.593492 -0.679585 0.431197
vn -0.629096 -0.628752 0.457065
vn -0.431197 -0.679585 0.593492
vn -0.457065 -0.628752 0.629096
vn -0.226694 -0.679585 0.697692
vn -0.240293 -0.628752 0.739547
vn 0.000000 -0.679585 0.733597
vn -0.000000 -0.628752 0.777606
vn 0.226694 -0.679585 0.697692
vn 0.240293 -0.628752 0.739547
vn 0.431198 -0.679585 0.593492
vn 0.457065 -0.628752 0.629096
vn 0.593492 -0.679585 0.431197
vn 0.629096 -0.628752 0.457065
vn 0.697692 -0.679585 0.226694
vn 0.739547 -0.628752 0.240293
vn 0.733597 -0.679585 0.000001
vn 0.777606 -0.628752 0.000001
vn 0.719539 -0.457132 -0.522776
vn 0.845869 -0.457132 -0.274839
vn 0.522776 -0.457132 -0.719539
vn 0.274839 -0.457132 -0.845869
vn -0.000000 -0.457132 -0.889399
vn -0.274839 -0.457132 -0.845869
vn -0.522776 -0.457132 -0.719539
vn -0.719539 -0.457132 -0.522776
vn -0.845869 -0.457132 -0.274839
vn -0.889399 -0.457132 -0.000000
vn -0.845869 -0.457132 0.274839
vn -0.719539 -0.457132 0.522776
vn -0.522776 -0.457132 0.719539
vn -0.274839 -0.457132 0.845869
vn -0.000000 -0.457132 0.889399
vn 0.274839 -0.457132 0.845869
vn 0.522776 -0.457132 0.719539
vn 0.719539 -0.457132 0.522776
vn 0.845869 -0.457132 0.274839
vn 0.889399 -0.457132 0.000001
vn 0.769434 -0.308968 -0.559026
vn 0.904524 -0.308968 -0.293897
vn 0.559026 -0.308968 -0.769434
vn 0.293897 -0.308968 -0.904524
vn -0.000000 -0.308968 -0.951073
vn -0.293898 -0.308968 -0.904524
vn -0.559027 -0.308968 -0.769434
vn -0.769434 -0.308968 -0.559026
vn -0.904524 -0.308968 -0.293898
vn -0.951073 -0.308968 -0.000000
vn -0.904524 -0.308968 0.293898
vn -0.769434 -0.308968 0.559027
vn -0.559026 -0.308968 0.769434
vn -0.293897 -0.308968 0.904524
vn -0.000000 -0.308968 0.951073
vn 0.293898 -0.308968 0.904524
vn 0.559026 -0.308968 0.769434
vn 0.769434 -0.308968 0.559026
vn 0.904524 -0.308968 0.293898
vn 0.951073 -0.308968 0.000001
vn 0.779237 -0.268823 -0.566149
vn 0.916048 -0.268823 -0.297641
vn 0.566149 -0.268824 -0.779237
vn 0.297642 -0.268824 -0.916048
vn -0.000000 -0.268824 -0.963189
vn -0.297642 -0.268824 -0.916048
vn -0.566149 -0.268824 -0.779237
vn -0.779237 -0.268824 -0.566149
vn -0.916048 -0.268824 -0.297642
vn -0.963189 -0.268824 -0.000000
vn -0.916048 -0.268824 0.297642
vn -0.779237 -0.268824 0.566149
vn -0.566149 -0.268824 0.779237
vn -0.297642 -0.268824 0.916048
vn 0.000000 -0.268824 0.963189
vn 0.297642 -0.268824 0.916048
vn 0.566149 -0.268824 0.779237
vn 0.779237 -0.268824 0.566149
vn 0.916048 -0.268824 0.297642
vn 0.963189 -0.268823 0.000001
vn 0.805566 -0.092270 -0.585278
vn 0.947000 -0.092270 -0.307698
vn 0.585278 -0.092270 -0.805566
vn 0.307699 -0.092270 -0.946999
vn -0.000000 -0.092269 -0.995734
vn -0.307699 -0.092270 -0.946999
vn -0.585278 -0.092270 -0.805566
vn -0.805566 -0.092270 -0.585278
vn -0.946999 -0.092269 -0.307699
vn -0.995734 -0.092269 0.000000
vn -0.946999 -0.092269 0.307699
vn -0.805566 -0.092269 0.585278
vn -0.585278 -0.092270 0.805566
vn -0.307699 -0.092270 0.946999
vn 0.000000 -0.092270 0.995734
vn 0.307699 -0.092270 0.946999
vn 0.585278 -0.092270 0.805566
vn 0.805566 -0.092270 0.585278
vn 0.947000 -0.092269 0.307699
vn 0.995734 -0.092270 0.000001
vn 0.807079 0.069177 -0.586377
vn 0.948779 0.069177 -0.308276
vn 0.586377 0.069177 -0.807079
vn 0.308276 0.069177 -0.948778
vn -0.000000 0.069177 -0.997604
vn -0.308277 0.069177 -0.948778
vn -0.586377 0.069177 -0.807079
vn -0.807079 0.069177 -0.586377
vn -0.948778 0.069177 -0.308277
vn -0.997604 0.069178 0.000000
vn -0.948778 0.069178 0.308277
vn -0.807079 0.069177 0.586377
vn -0.586377 0.069177 0.807079
vn -0.308277 0.069177 0.948778
vn 0.000000 0.069177 0.997604
vn 0.308277 0.069177 0.948778
vn 0.586377 0.069177 0.807079
vn 0.807079 0.069177 0.586377
vn 0.948778 0.069177 0.308277
vn 0.997604 0.069177 0.000001
vn -0.085792 -0.994361 0.062332
vn -0.100855 -0.994361 0.032770
vn -0.000000 -1.000000 -0.000000
vn -0.062332 -0.994361 0.085792
vn -0.032770 -0.994361 0.100855
vn 0.000000 -0.994361 0.106045
vn 0.032770 -0.994361 0.100855
vn 0.062332 -0.994361 0.085792
vn 0.085792 -0.994361 0.062332
vn 0.100855 -0.994361 0.032770
vn 0.106045 -0.994361 0.000000
vn 0.100855 -0.994361 -0.032770
vn 0.085792 -0.994361 -0.062332
vn 0.062332 -0.994361 -0.085793
vn 0.032770 -0.994361 -0.100855
vn 0.000000 -0.994361 -0.106045
vn -0.032770 -0.994361 -0.100855
vn -0.062332 -0.994361 -0.085793
vn -0.085792 -0.994361 -0.062332
vn -0.100855 -0.994361 -0.032770
vn -0.106045 -0.994361 -0.000000
vn 0.000000 1.000000 0.000000
vn 0.000000 1.000000 0.000000
vn 0.000000 1.000000 0.000000
vn 0.000000 1.000000 0.000000
vn 0.000000 1.000000 0.000000
vn 0.000000 1.000000 -0.000000
vn 0.000000 1.000000 -0.000000
vn 0.000000 1.000000 0.000000
vn 0.000000 1.000000 0.000000
vn 0.000000 1.000000 0.000000
vn 0.000000 1.000000 0.000000
vn 0.000000 1.000000 0.000000
vn 0.000000 1.000000 0.000000
vn 0.000000 1.000000 0.000000
vn 0.000000 1.000000 0.000000
vn 0.000000 1.000000 0.000000
vn 0.000000 1.000000 0.000000
vn 0.000000 1.000000 0.000000
vn 0.000000 1.000000 0.000000
vn 0.000000 1.000000 0.000000
vn 0.000000 1.000000 0.000000
s 1
g pCylinder1
usemtl initialShadingGroup
f 1/21/1 2/22/2 22/43/3 21/42/4
f 2/22/2 3/23/5 23/44/6 22/43/3
f 3/23/5 4/24/7 24/45/8 23/44/6
f 4/24/7 5/25/9 25/46/10 24/45/8
f 5/25/9 6/26/11 26/47/12 25/46/10
f 6/26/11 7/27/13 27/48/14 26/47/12
f 7/27/13 8/28/15 28/49/16 27/48/14
f 8/28/15 9/29/17 29/50/18 28/49/16
f 9/29/17 10/30/19 30/51/20 29/50/18
f 10/30/19 11/31/21 31/52/22 30/51/20
f 11/31/21 12/32/23 32/53/24 31/52/22
f 12/32/23 13/33/25 33/54/26 32/53/24
f 13/33/25 14/34/27 34/55/28 33/54/26
f 14/34/27 15/35/29 35/56/30 34/55/28
f 15/35/29 16/36/31 36/57/32 35/56/30
f 16/36/31 17/37/33 37/58/34 36/57/32
f 17/37/33 18/38/35 38/59/36 37/58/34
f 18/38/35 19/39/37 39/60/38 38/59/36
f 19/39/37 20/40/39 40/61/40 39/60/38
f 20/40/39 1/41/1 21/62/4 40/61/40
f 21/42/4 22/43/3 42/64/41 41/63/42
f 22/43/3 23/44/6 43/65/43 42/64/41
f 23/44/6 24/45/8 44/66/44 43/65/43
f 24/45/8 25/46/10 45/67/45 44/66/44
f 25/46/10 26/47/12 46/68/46 45/67/45
f 26/47/12 27/48/14 47/69/47 46/68/46
f 27/48/14 28/49/16 48/70/48 47/69/47
f 28/49/16 29/50/18 49/71/49 48/70/48
f 29/50/18 30/51/20 50/72/50 49/71/49
f 30/51/20 31/52/22 51/73/51 50/72/50
f 31/52/22 32/53/24 52/74/52 51/73/51
f 32/53/24 33/54/26 53/75/53 52/74/52
f 33/54/26 34/55/28 54/76/54 53/75/53
f 34/55/28 35/56/30 55/77/55 54/76/54
f 35/56/30 36/57/32 56/78/56 55/77/55
f 36/57/32 37/58/34 57/79/57 56/78/56
f 37/58/34 38/59/36 58/80/58 57/79/57
f 38/59/36 39/60/38 59/81/59 58/80/58
f 39/60/38 40/61/40 60/82/60 59/81/59
f 40/61/40 21/62/4 41/83/42 60/82/60
f 41/63/42 42/64/41 62/85/61 61/84/62
f 42/64/41 43/65/43 63/86/63 62/85/61
f 43/65/43 44/66/44 64/87/64 63/86/63
f 44/66/44 45/67/45 65/88/65 64/87/64
f 45/67/45 46/68/46 66/89/66 65/88/65
f 46/68/46 47/69/47 67/90/67 66/89/66
f 47/69/47 48/70/48 68/91/68 67/90/67
f 48/70/48 49/71/49 69/92/69 68/91/68
f 49/71/49 50/72/50 70/93/70 69/92/69
f 50/72/50 51/73/51 71/94/71 70/93/70
f 51/73/51 52/74/52 72/95/72 71/94/71
f 52/74/52 53/75/53 73/96/73 72/95/72
f 53/75/53 54/76/54 74/97/74 73/96/73
f 54/76/54 55/77/55 75/98/75 74/97/74
f 55/77/55 56/78/56 76/99/76 75/98/75
f 56/78/56 57/79/57 77/100/77 76/99/76
f 57/79/57 58/80/58 78/101/78 77/100/77
f 58/80/58 59/81/59 79/102/79 78/101/78
f 59/81/59 60/82/60 80/103/80 79/102/79
f 60/82/60 41/83/42 61/104/62 80/103/80
f 61/84/62 62/85/61 82/106/81 81/105/82
f 62/85/61 63/86/63 83/107/83 82/106/81
f 63/86/63 64/87/64 84/108/84 83/107/83
f 64/87/64 65/88/65 85/109/85 84/108/84
f 65/88/65 66/89/66 86/110/86 85/109/85
f 66/89/66 67/90/67 87/111/87 86/110/86
f 67/90/67 68/91/68 88/112/88 87/111/87
f 68/91/68 69/92/69 89/113/89 88/112/88
f 69/92/69 70/93/70 90/114/90 89/113/89
f 70/93/70 71/94/71 91/115/91 90/114/90
f 71/94/71 72/95/72 92/116/92 91/115/91
f 72/95/72 73/96/73 93/117/93 92/116/92
f 73/96/73 74/97/74 94/118/94 93/117/93
f 74/97/74 75/98/75 95/119/95 94/118/94
f 75/98/75 76/99/76 96/120/96 95/119/95
f 76/99/76 77/100/77 97/121/97 96/120/96
f 77/100/77 78/101/78 98/122/98 97/121/97
f 78/101/78 79/102/79 99/123/99 98/122/98
f 79/102/79 80/103/80 100/124/100 99/123/99
f 80/103/80 61/104/62 81/125/82 100/124/100
f 81/105/82 82/106/81 102/127/101 101/126/102
f 82/106/81 83/107/83 103/128/103 102/127/101
f 83/107/83 84/108/84 104/129/104 103/128/103
f 84/108/84 85/109/85 105/130/105 104/129/104
f 85/109/85 86/110/86 106/131/106 105/130/105
f 86/110/86 87/111/87 107/132/107 106/131/106
f 87/111/87 88/112/88 108/133/108 107/132/107
f 88/112/88 89/113/89 109/134/109 108/133/108
f 89/113/89 90/114/90 110/135/110 109/134/109
f 90/114/90 91/115/91 111/136/111 110/135/110
f 91/115/91 92/116/92 112/137/112 111/136/111
f 92/116/92 93/117/93 113/138/113 112/137/112
f 93/117/93 94/118/94 114/139/114 113/138/113
f 94/118/94 95/119/95 115/140/115 114/139/114
f 95/119/95 96/120/96 116/141/116 115/140/115
f 96/120/96 97/121/97 117/142/117 116/141/116
f 97/121/97 98/122/98 118/143/118 117/142/117
f 98/122/98 99/123/99 119/144/119 118/143/118
f 99/123/99 100/124/100 120/145/120 119/144/119
f 100/124/100 81/125/82 101/146/102 120/145/120
f 101/126/102 102/127/101 122/148/121 121/147/122
f 102/127/101 103/128/103 123/149/123 122/148/121
f 103/128/103 104/129/104 124/150/124 123/149/123
f 104/129/104 105/130/105 125/151/125 124/150/124
f 105/130/105 106/131/106 126/152/126 125/151/125
f 106/131/106 107/132/107 127/153/127 126/152/126
f 107/132/107 108/133/108 128/154/128 127/153/127
f 108/133/108 109/134/109 129/155/129 128/154/128
f 109/134/109 110/135/110 130/156/130 129/155/129
f 110/135/110 111/136/111 131/157/131 130/156/130
f 111/136/111 112/137/112 132/158/132 131/157/131
f 112/137/112 113/138/113 133/159/133 132/158/132
f 113/138/113 114/139/114 134/160/134 133/159/133
f 114/139/114 115/140/115 135/161/135 134/160/134
f 115/140/115 116/141/116 136/162/136 135/161/135
f 116/141/116 117/142/117 137/163/137 136/162/136
f 117/142/117 118/143/118 138/164/138 137/163/137
f 118/143/118 119/144/119 139/165/139 138/164/138
f 119/144/119 120/145/120 140/166/140 139/165/139
f 120/145/120 101/146/102 121/167/122 140/166/140
s 2
f 2/2/141 1/1/142 141/188/143
f 3/3/144 2/2/141 141/188/143
f 4/4/145 3/3/144 141/188/143
f 5/5/146 4/4/145 141/188/143
f 6/6/147 5/5/146 141/188/143
f 7/7/148 6/6/147 141/188/143
f 8/8/149 7/7/148 141/188/143
f 9/9/150 8/8/149 141/188/143
f 10/10/151 9/9/150 141/188/143
f 11/11/152 10/10/151 141/188/143
f 12/12/153 11/11/152 141/188/143
f 13/13/154 12/12/153 141/188/143
f 14/14/155 13/13/154 141/188/143
f 15/15/156 14/14/155 141/188/143
f 16/16/157 15/15/156 141/188/143
f 17/17/158 16/16/157 141/188/143
f 18/18/159 17/17/158 141/188/143
f 19/19/160 18/18/159 141/188/143
f 20/20/161 19/19/160 141/188/143
f 1/1/142 20/20/161 141/188/143
s 3
f 121/186/162 122/185/163 142/189/164
f 122/185/163 123/184/165 142/189/164
f 123/184/165 124/183/166 142/189/164
f 124/183/166 125/182/167 142/189/164
f 125/182/167 126/181/168 142/189/164
f 126/181/168 127/180/169 142/189/164
f 127/180/169 128/179/170 142/189/164
f 128/179/170 129/178/171 142/189/164
f 129/178/171 130/177/172 142/189/164
f 130/177/172 131/176/173 142/189/164
f 131/176/173 132/175/174 142/189/164
f 132/175/174 133/174/175 142/189/164
f 133/174/175 134/173/176 142/189/164
f 134/173/176 135/172/177 142/189/164
f 135/172/177 136/171/178 142/189/164
f 136/171/178 137/170/179 142/189/164
f 137/170/179 138/169/180 142/189/164
f 138/169/180 139/168/181 142/189/164
f 139/168/181 140/187/182 142/189/164
f 140/187/182 121/186/162 142/189/164
